<?xml version="1.0" encoding="utf-8"?>
<!-- Generator: Adobe Illustrator 28.1.0, SVG Export Plug-In . SVG Version: 6.00 Build 0)  -->
<svg version="1.1" id="Layer_1" xmlns="http://www.w3.org/2000/svg" xmlns:xlink="http://www.w3.org/1999/xlink" x="0px" y="0px"
	 viewBox="0 0 80 20" style="enable-background:new 0 0 80 20;" xml:space="preserve">
<path d="M6.3,8.4l8.9-7.5c0,0,0.9-0.9,2.6-0.9h7.4l-9.3,7.8L25.4,19h-6.7c-1.8,0-2.5-1.1-2.5-1.1l-5.1-6.1l-4.8,4V19H0V0h6.3V8.4z
	 M52.4,0v6.3h-9.6V19h-6.3V6.3H27V0H52.4z M70.5,0C75.7,0,80,4.3,80,9.5c0,5.2-4.2,9.5-9.5,9.5h-7.3c-5.2,0-9.5-4.3-9.5-9.5
	C53.7,4.3,58,0,63.2,0H70.5z M63.2,6.2c-1.8,0-3.2,1.5-3.2,3.2c0,1.8,1.5,3.2,3.2,3.2h7.4c1.8,0,3.2-1.4,3.2-3.2
	c0-1.8-1.5-3.2-3.2-3.2H63.2z"/>
</svg>
